<?xml version="1.0" encoding="utf-8"?>
<!-- Generator: Adobe Illustrator 23.0.0, SVG Export Plug-In . SVG Version: 6.00 Build 0)  -->
<svg version="1.1" id="Camada_1" xmlns="http://www.w3.org/2000/svg" xmlns:xlink="http://www.w3.org/1999/xlink" x="0px" y="0px"
	 viewBox="0 0 100 100" style="enable-background:new 0 0 100 100;" xml:space="preserve">
<path d="M10.9,100c-1-0.3-2.1-0.7-3.1-1.2C5.5,97.5,4,95,4,92.3V8.5c0-4,2.1-7.1,5.7-8.1C10.6,0.1,11.5,0,12.3,0h45.1
	c4.3-0.2,8,3.1,8.2,7.4c0,0,0,0.1,0,0.1v29.9c0,1.3-0.5,1.9-1.4,2c-0.9,0-1.5-0.7-1.5-2V8.3C62.9,5.7,61,3.4,58.4,3l-1-0.1h-5.5
	l-0.6,3.3c-0.5,3.3-3.4,5.7-6.7,5.7H25.1c-3.3,0-6.2-2.4-6.7-5.7L17.8,3h-6.3C9,3.2,7.1,5.3,7,7.8v83.7c0,2.9,1.5,4.9,4.1,5.5
	l1.4,0.1h44.8c3.3,0,5.4-2.1,5.4-5.4V67.8c0-2,0.4-2.3,2.3-2.3h3.4V64c-0.1-2.5,1.9-4.6,4.4-4.8h8.6c0.2-1.7,0.6-2.3,1.5-2.3
	s1.4,0.6,1.5,2.3c1.9-0.1,3.8,0.1,4.9,1.8c0.6,0.9,0.9,1.9,1,3c0,2.9-1.9,4.2-6.3,4.4l0.7,0.8l9.5,9.5c1.8,1.8,1.9,4.6,0.2,6.5
	c-1.8,1.8-4.6,1.9-6.5,0.2l-0.2-0.2l-9.4-9.4l-0.6-0.9l-0.4,0.2v2c-0.3,2.3-2.2,4.1-4.5,4.1c-2.4,0.1-4.4-1.7-4.5-4.1c0,0,0,0,0,0
	l-0.1-7.6v-1.2h-2.8v22.8c0,4.7-2,7.3-6.6,8.7l-0.1,0.1C58.7,99.9,10.9,100,10.9,100z M77.6,70.7l12,12l0.8,0.7
	c0.7,0.5,1.8,0.3,2.3-0.4c0.4-0.6,0.4-1.4-0.1-2L92,80.4L79.8,68.2c-0.6-0.4-0.8-1.2-0.5-1.8c0.3-0.6,1-1,1.7-0.9h4.7
	c1.2,0,2-0.6,2-1.6s-0.8-1.7-2-1.7H73.6c-1.5,0-2.1,0.6-2.1,2.1v12.2c0,1.3,0.6,2,1.6,2s1.6-0.7,1.7-2V72c0-0.8,0-1.5,0.9-1.9
	l0.6-0.1C76.8,69.9,77.3,70.2,77.6,70.7z M21.3,5.8C21.6,7.7,23.2,9,25.1,9h19.5c1.8,0,3.4-1.3,3.8-3.1C48.7,5,48.8,4,49,3H20.8
	L21.3,5.8z M29.2,90.1c-4.3-0.2-8-3.2-8.8-7c-0.1-0.8-0.2-1.7-0.2-2.5V65c0.1-0.6,0.6-1.1,1.3-1.1c0.7-0.1,1.3,0.3,1.5,1l0.1,1.2
	c0,4.8,0.2,9.7-0.1,14.5c-0.3,4.7,4.7,7.8,8.8,6.4c2.9-1,4.7-2.9,4.7-6.3V65.1c0.2-0.8,0.9-1.3,1.7-1.1c0.6,0.1,1,0.6,1.1,1.1v15.5
	c0.2,5.1-3.7,9.4-8.8,9.6c-0.1,0-0.1,0-0.2,0h-0.6C29.7,90.2,29.2,90.1,29.2,90.1z M48,90.1c-0.7,0-1.3-0.5-1.3-1.2l-0.1-1.1V66
	c0-1.5,0.4-2.2,1.4-2.2s1.5,0.7,1.5,2.2v21.8L49.4,89C49.3,89.7,48.7,90.1,48,90.1z M57.3,64.7l-1.1-3.1c0.2-0.6,0.5-1.1,0.9-1.6
	c0.9-0.7,2-0.1,2.2,1.2c0.1,0.8,0.3,1.6,0.6,2.3c0.3,0.7,0,1.6-0.7,2l-0.7,0.2C58,65.6,57.5,65.2,57.3,64.7z M57.7,55.7
	c-0.7,0-1.3-0.6-1.3-1.3v-3.3c0-0.7,0.5-1.3,1.3-1.4h0.1c0.7-0.1,1.3,0.3,1.4,1v3.9c-0.1,0.7-0.6,1.1-1.3,1.1H57.7z M83.1,53
	c-0.8,0-1.4-0.6-1.4-1.4v-3.2c0-0.8,0.6-1.5,1.4-1.5s1.5,0.6,1.5,1.4v3.3C84.5,52.4,83.9,53,83.1,53z M23.5,52.5
	c-2.8,0.2-5.1-1.9-5.3-4.7c0,0,0-0.1,0-0.1V24.1c-0.1-2.5,1.7-4.7,4.2-5.1l0.7-0.1c0.8-0.1,1.5,0.5,1.6,1.3v0.1
	c0.1,0.8-0.5,1.5-1.3,1.6h-0.1c-1.7,0.3-2.2,0.9-2.2,2.6V47c0,1.9,0.8,2.7,2.7,2.7h22.4c1.8,0,2.6-0.8,2.7-2.6V24.5
	c0-1.8-0.8-2.6-2.6-2.6H30.5c-0.8,0-1.4-0.7-1.4-1.5s0.7-1.4,1.5-1.4h15.9c2.8-0.2,5.2,1.8,5.4,4.6c0,0,0,0.1,0,0.1v23.6
	c0.1,2.8-2,5.1-4.8,5.2c0,0-0.1,0-0.1,0C47,52.5,23.5,52.5,23.5,52.5z M57.8,45.7c-0.6-0.4-0.9-1.2-0.5-1.9l0.1-0.2
	c0.8-1,1.7-1.8,2.7-2.6c0.9-0.6,2.1,0.2,2.1,1.5l-0.7,0.9l-1.7,1.7c-0.3,0.4-0.8,0.6-1.3,0.7C58.3,45.9,58,45.8,57.8,45.7z
	 M80.1,43.9l-2.9-0.8c-0.7-0.1-1.3-0.8-1.2-1.6c0.1-0.8,0.6-1.4,1.4-1.3c1.3,0.2,2.5,0.6,3.7,1c0.4,0.1,0.6,0.7,0.7,0.9
	c0,1.1-0.7,1.7-1.5,1.7C80.3,43.8,80.1,43.9,80.1,43.9z M67.3,43.1c-0.7-0.1-1.2-0.7-1.2-1.4v-0.1c0-0.7,0.6-1.3,1.4-1.3h3.2
	c0.7,0,1.3,0.5,1.4,1.3c0.2,0.7-0.3,1.4-0.9,1.5H71l-1.9,0.1L67.3,43.1z M28.2,39.4c-1.2,0-1.9-0.8-1.7-1.7c0.1-0.7,0.7-1.2,1.4-1.2
	h14.8c0.8,0,1.4,0.6,1.4,1.4c0,0.8-0.7,1.5-1.5,1.5C42.6,39.4,28.2,39.4,28.2,39.4z M38.7,33.8h-3.9c-0.8,0.3-1.6-0.1-1.9-0.9
	c-0.3-0.8,0.1-1.6,0.9-1.9c0.2-0.1,0.5-0.1,0.7-0.1h8c0.8-0.3,1.6,0.1,1.9,0.9c0.3,0.8-0.1,1.6-0.9,1.9c-0.2,0.1-0.5,0.1-0.7,0.1
	H38.7z M26.4,32.4c0-0.8,0.7-1.5,1.5-1.5s1.4,0.6,1.4,1.4c0,0.8-0.6,1.4-1.3,1.5h-0.1C27.1,33.8,26.5,33.2,26.4,32.4z M56.4,9.1
	c-0.8,0-1.4-0.6-1.4-1.4s0.6-1.4,1.4-1.4c0.8,0,1.4,0.6,1.4,1.4S57.2,9.1,56.4,9.1z M32.1,7.7c-0.8,0.1-1.5-0.5-1.6-1.4V6.2
	c0-0.8,0.7-1.5,1.5-1.5h5.7c0.8,0,1.4,0.7,1.4,1.5s-0.7,1.4-1.5,1.4h-4.5L32.1,7.7z"/>
</svg>
