<?xml version="1.0" encoding="utf-8"?>
<!-- Generator: Adobe Illustrator 23.0.0, SVG Export Plug-In . SVG Version: 6.00 Build 0)  -->
<svg version="1.1" id="Camada_1" xmlns="http://www.w3.org/2000/svg" xmlns:xlink="http://www.w3.org/1999/xlink" x="0px" y="0px"
	 viewBox="0 0 100 100" style="enable-background:new 0 0 100 100;" xml:space="preserve">
<g>
	<path d="M67.5,5.1c0.3,0,0.6,0,0.9,0c1.1,0,2.2,0,3.3,0.2c0.4,0,0.7,0,1.1,0.1c0.1,0,0.3,0,0.4,0c0.1,0,0.1,0,0.2,0
		c0.2,0,0.2,0,0.4,0.1c0.1,0,0.2,0,0.4,0c0.1,0,0.1,0,0.2,0c0.1,0,0.1,0,0.2,0c0.1,0,0.3,0,0.4,0c0.1,0,0.1,0,0.2,0
		c0.2,0,0.2,0,0.4,0.1c0.2,0,0.4,0,0.7,0.1c0.2,0,0.2,0,0.4,0.1c0.2,0,0.4,0.1,0.6,0.1C77.7,6,77.7,6,77.9,6.1c0.1,0,0.2,0,0.3,0
		c1.3,0.1,1.3,0.1,1.5,0.4c0.1,0,0.2,0,0.3,0c0.3,0,0.6,0.1,0.8,0.2c0.4,0.1,0.7,0.2,1.1,0.3c0.3,0.1,0.7,0.2,1,0.3
		c0.2,0.1,0.4,0.1,0.6,0.2c0.8,0.3,1.6,0.7,2.4,1c0.1,0,0.1,0.1,0.2,0.1c0.1,0,0.1,0,0.2,0.1c0.2,0.1,0.2,0.1,0.4,0.1
		c0,0.1,0,0.1,0,0.2c0.1,0,0.1,0,0.2,0c0.3,0.1,0.6,0.3,0.9,0.5c0.1,0,0.1,0.1,0.2,0.1c0.1,0,0.1,0.1,0.2,0.1c0.1,0,0.1,0.1,0.2,0.1
		c0,0,0.1,0.1,0.1,0.1c0,0.1,0,0.1,0,0.2c0.1,0,0.2,0,0.2,0c0,0.1,0,0.1,0,0.2c0.1,0,0.1,0,0.2,0.1c0.2,0.1,0.2,0.1,0.4,0.2
		c0,0.1,0,0.1,0,0.2c0.1,0,0.1,0,0.1,0.1c0.7,0.4,1.5,1.1,1.9,1.8c0,0.1,0,0.1,0,0.2c0.1,0,0.1,0,0.2,0c0.3,0.4,0.5,0.8,0.8,1.3
		c0.1,0.2,0.2,0.4,0.3,0.6c0.2,0.4,0.3,0.7,0.4,1.1c0.1,0,0.1,0,0.2,0c1.4,0.3,2.7,0.9,3.8,1.8c0.1,0.1,0.1,0.1,0.2,0.1
		c0,0,0.1,0.1,0.1,0.1c0,0.1,0,0.1,0,0.2c0.1,0,0.1,0,0.2,0.1c0.2,0.1,0.2,0.1,0.2,0.3c0.1,0,0.1,0,0.2,0c0.1,0.1,0.2,0.3,0.4,0.4
		c0,0,0.1,0.1,0.1,0.1c1.5,2,1.7,4,1.7,6.4c0,0.2,0,0.4,0,0.6c0,0.5,0,0.9,0,1.4c0,0.7,0,1.4,0,2.1c0,1.2,0,2.4,0,3.7
		c0,1.1,0,2.1,0,3.2c0,0.1,0,0.1,0,0.2c0,0.3,0,0.6,0,0.9c0,2.7,0,5.4,0,8.1c0,2.4,0,4.8,0,7.2c0,2.7,0,5.4,0,8.1c0,0.3,0,0.6,0,0.9
		c0,0.1,0,0.1,0,0.2c0,1.1,0,2.1,0,3.2c0,1.2,0,2.4,0,3.7c0,0.7,0,1.4,0,2c0,0.5,0,0.9,0,1.4c0,0.3,0,0.5,0,0.8c0,2.5-0.4,4.6-2,6.5
		c-0.1,0-0.1,0-0.2,0c0,0,0,0.1-0.1,0.1c-0.1,0.2-0.2,0.3-0.4,0.5c-0.1,0-0.1,0-0.2,0c0,0.1,0,0.1,0,0.2c-0.1,0.1-0.1,0.1-0.3,0.2
		c-0.1,0.1-0.1,0.1-0.2,0.1c-0.2,0.1-0.2,0.1-0.3,0.1c0,0.1,0,0.1,0,0.2c-0.6,0.4-0.6,0.4-1,0.4c0,0.1,0,0.1,0,0.2
		c-0.3,0.2-0.7,0.3-1.1,0.4c-0.3,0.1-0.3,0.1-0.6,0.2c-0.1,0-0.2,0-0.4,0c-0.3,0-0.3,0-0.5,0.1c-0.7,0.1-1.4,0.1-2.1,0.1
		c-0.1,0-0.3,0-0.4,0c-0.4,0-0.7,0-1.1,0c-0.4,0-0.8,0-1.2,0c-0.7,0-1.4,0-2.1,0c-1,0-2,0-3,0c-1.6,0-3.2,0-4.9,0
		c-1.6,0-3.1,0-4.7,0c-0.1,0-0.2,0-0.3,0c-0.5,0-1,0-1.5,0c-4,0-8.1,0-12.1,0c0,0.1,0,0.1,0,0.2c0,0.1,0,0.1-0.1,0.2
		c0,0.1,0,0.1-0.1,0.2c-0.1,0.2-0.1,0.3-0.2,0.5c-0.2,0.4-0.3,0.7-0.4,1.1c0,0.1,0,0.1-0.1,0.2c-0.1,0.4-0.2,0.7-0.2,1.1
		c0,0.1,0,0.1-0.1,0.3c-0.2,1.5-0.1,3,0.2,4.5c0,0.1,0,0.2,0.1,0.3c0.1,0.6,0.3,1.1,0.6,1.7c0.1,0.2,0.2,0.5,0.2,0.7
		c0.1,0,0.1,0,0.2,0c0.6,0,1.1,0,1.7,0c0.3,0,0.6,0,0.9,0c0.3,0,0.6,0,0.8,0c0.2,0,0.3,0,0.5,0c0.6,0,1,0,1.4,0.4
		c0,0.1,0.1,0.2,0.1,0.2c0.1,0,0.1,0,0.2,0c0.2,0.3,0.2,0.6,0.2,1c-0.1,0.4-0.3,0.6-0.6,0.9c-0.3,0.1-0.4,0.1-0.7,0.1
		c-0.1,0-0.2,0-0.3,0c-0.1,0-0.2,0-0.3,0c-0.1,0-0.2,0-0.4,0c-0.3,0-0.7,0-1,0c-0.4,0-0.7,0-1.1,0c-0.8,0-1.6,0-2.3,0
		c-0.5,0-1,0-1.5,0c-1.3,0-2.7,0-4,0c-0.1,0-0.2,0-0.3,0c-0.1,0-0.1,0-0.3,0c-0.2,0-0.4,0-0.5,0c-0.1,0-0.1,0-0.3,0
		c-1.4,0-2.8,0-4.2,0c-1.4,0-2.9,0-4.3,0c-0.8,0-1.6,0-2.4,0c-0.7,0-1.4,0-2.1,0c-0.4,0-0.7,0-1.1,0c-0.3,0-0.6,0-1,0
		c-0.1,0-0.2,0-0.4,0c-0.2,0-0.3,0-0.5,0c-0.1,0-0.1,0-0.3,0c-0.3,0-0.6-0.1-0.8-0.4c0,0,0-0.1-0.1-0.1c-0.1-0.1-0.1-0.3-0.2-0.4
		c0-0.4,0-0.6,0.2-1c0.1,0,0.1,0,0.2,0c0-0.1,0.1-0.2,0.1-0.2c0.1,0,0.1,0,0.2,0c0-0.1,0-0.1,0-0.2c0.3-0.1,0.6-0.2,1-0.2
		c0.1,0,0.1,0,0.3,0c0.2,0,0.2,0,0.3,0c0.1,0,0.2,0,0.3,0c0.3,0,0.6,0,0.8,0c0.3,0,0.6,0,0.9,0c0.6,0,1.1,0,1.7,0c0,0,0-0.1,0-0.1
		c0-0.1,0-0.1,0.1-0.2c0-0.1,0-0.1,0.1-0.2c0.1-0.2,0.1-0.3,0.2-0.5c0.6-1.4,0.8-2.9,0.8-4.4c0-0.1,0-0.2,0-0.2c0-0.5,0-1.1-0.1-1.6
		c0-0.1,0-0.2,0-0.2c-0.1-0.5-0.2-1-0.4-1.4c-0.1-0.3-0.2-0.7-0.3-1c-0.1-0.2-0.2-0.4-0.3-0.6c0-0.1-0.1-0.1-0.1-0.2
		c0,0,0-0.1-0.1-0.1c-0.1,0-0.1,0-0.2,0c-4,0-8.1,0-12.1,0c-0.5,0-1,0-1.5,0c-0.1,0-0.2,0-0.3,0c-1.6,0-3.1,0-4.7,0
		c-1.6,0-3.2,0-4.8,0c-1,0-2,0-3,0c-0.7,0-1.4,0-2,0c-0.4,0-0.8,0-1.2,0c-3.9,0-3.9,0-5-0.5c-0.2-0.1-0.3-0.1-0.5-0.2
		c-0.4-0.1-0.8-0.4-1.2-0.6c-0.1,0-0.2-0.1-0.2-0.1c-0.4-0.3-0.8-0.6-1.1-0.9c0,0-0.1-0.1-0.1-0.1c-1-0.9-1.8-2.3-2.1-3.6
		c0-0.2,0-0.2-0.1-0.4C0,74.8,0,73.7,0,72.6c0-0.2,0-0.4,0-0.6c0-0.5,0-0.9,0-1.4c0-0.7,0-1.4,0-2.1c0-1.2,0-2.5,0-3.7
		c0-1.1,0-2.1,0-3.2c0-0.1,0-0.1,0-0.2c0-0.3,0-0.6,0-0.9c0-2.7,0-5.4,0-8.1c0-2.4,0-4.8,0-7.2c0-2.7,0-5.4,0-8.1c0-0.3,0-0.6,0-0.9
		c0-0.1,0-0.1,0-0.2c0-1.1,0-2.1,0-3.2c0-1.2,0-2.4,0-3.7c0-0.7,0-1.4,0-2c0-0.5,0-0.9,0-1.4c0-0.3,0-0.5,0-0.8c0-2.6,0-2.6,0.4-3.8
		c0-0.1,0.1-0.1,0.1-0.2c0.4-0.9,0.9-2.1,1.7-2.7c0.1,0,0.1,0,0.2,0c0-0.1,0-0.1,0.1-0.2c0.1-0.2,0.1-0.2,0.3-0.2c0-0.1,0-0.1,0-0.2
		c0.2-0.1,0.3-0.3,0.5-0.4c0,0,0.1-0.1,0.1-0.1c0.4-0.3,0.8-0.6,1.3-0.8c0,0,0.1-0.1,0.2-0.1c0.8-0.4,1.6-0.6,2.5-0.7
		c0.1,0,0.1,0,0.2,0c0.7-0.1,1.4-0.1,2.1-0.1c0.1,0,0.3,0,0.4,0c0.4,0,0.8,0,1.2,0c0.4,0,0.9,0,1.3,0c0.7,0,1.5,0,2.2,0
		c1.1,0,2.1,0,3.2,0c1.7,0,3.4,0,5.2,0c1.7,0,3.3,0,5,0c0.1,0,0.2,0,0.3,0c0.5,0,1,0,1.6,0c4.3,0,8.6,0,12.9,0c0-0.1,0-0.1,0-0.2
		c0-0.1,0-0.2,0.1-0.3c0-0.1,0-0.2,0.1-0.3c0.2-0.9,0.8-1.7,1.4-2.4c0-0.1,0.1-0.1,0.1-0.2c0,0,0.1-0.1,0.1-0.1c0.1,0,0.1,0,0.2,0
		c0-0.1,0.1-0.2,0.1-0.2c0.1,0,0.1,0,0.2,0c0-0.1,0-0.1,0-0.2c0.1,0,0.1,0,0.2,0c0-0.1,0.1-0.2,0.1-0.2c0.1,0,0.1,0,0.2,0
		c0-0.1,0-0.1,0-0.2c0.2-0.1,0.3-0.3,0.5-0.4c0.1-0.1,0.1-0.1,0.1-0.1c0.4-0.3,0.4-0.3,0.5-0.3c0-0.1,0-0.1,0-0.2
		c0.2-0.1,0.2-0.1,0.4-0.3c0.3-0.2,0.5-0.3,0.7-0.5c0.2-0.1,0.2-0.1,0.4-0.1c0-0.1,0-0.1,0-0.2c0,0,0.1,0,0.1-0.1
		c0.2-0.1,0.4-0.2,0.6-0.3C49,9,49,9,49.1,8.9c0.3-0.1,0.6-0.3,0.9-0.4c0.3-0.1,0.6-0.3,0.9-0.4c0.3-0.1,0.7-0.3,1-0.4
		c0.3-0.1,0.6-0.2,1-0.3c0.2-0.1,0.4-0.1,0.6-0.2c0.4-0.2,0.8-0.3,1.2-0.4c0.1,0,0.1,0,0.2,0c0.1,0,0.1,0,0.2,0c0.1,0,0.1,0,0.2-0.1
		c0.1,0,0.2,0,0.3-0.1c0.1,0,0.1,0,0.2,0c0.1,0,0.1,0,0.2,0c0.5-0.1,0.9-0.2,1.4-0.3C57.8,6,58.3,6,58.7,5.9c0.2,0,0.2,0,0.4-0.1
		c0.1,0,0.3,0,0.4,0c0.3,0,0.6-0.1,0.9-0.1c0.9-0.2,1.8-0.3,2.7-0.3c0.4,0,0.8,0,1.2-0.1C65.4,5.1,66.4,5.1,67.5,5.1z M64.4,7.7
		c-0.1,0-0.1,0-0.2,0c-0.3,0-0.7,0.1-1,0.1c-0.2,0-0.4,0-0.6,0C62,7.8,61.5,7.9,61,8c-0.1,0-0.1,0-0.2,0c-0.3,0-0.5,0.1-0.8,0.2
		c-0.2,0-0.3,0-0.5,0c-0.4,0-0.7,0.1-1.1,0.2c-0.3,0.1-0.7,0.2-1.1,0.2c-0.4,0-0.8,0.2-1.1,0.3C56,9,55.7,9,55.5,9.1
		c-2.4,0.6-5,1.5-7,3c0,0.1,0,0.1,0,0.2c-0.1,0-0.1,0-0.1,0c-0.2,0-0.2,0-0.4,0.2c0,0.1,0,0.1,0,0.2c-0.1,0-0.1,0-0.2,0.1
		c-0.2,0.1-0.4,0.2-0.6,0.4c0,0.1,0,0.1,0,0.2c-0.1,0-0.1,0-0.2,0c0,0.1,0,0.1,0,0.2c-0.1,0-0.1,0-0.2,0.1c0,0.1,0,0.1,0,0.2
		c-0.1,0-0.1,0-0.2,0c0,0.1,0,0.1,0,0.2c-0.1,0-0.1,0-0.2,0.1c-0.7,0.9-1.3,2-1.2,3.1c0.1,1,0.6,1.9,1.2,2.6c0.1,0,0.1,0,0.2,0
		c0,0.1,0.1,0.2,0.1,0.2c0.1,0,0.1,0,0.2,0c0,0.1,0,0.1,0,0.2c0.1,0,0.1,0,0.2,0c0,0.1,0.1,0.2,0.1,0.2c0.1,0,0.1,0,0.2,0
		c0,0.1,0,0.1,0,0.2c0.2,0.1,0.3,0.3,0.5,0.4c0.1,0.1,0.1,0.1,0.1,0.1c0.2,0.2,0.2,0.2,0.5,0.3c0,0.1,0,0.1,0,0.2
		c0.1,0,0.2,0.1,0.2,0.1c0.2,0.1,0.4,0.2,0.6,0.4c0,0,0.1,0.1,0.1,0.1c0.1,0.1,0.2,0.1,0.3,0.2c0.3,0.2,0.6,0.4,1,0.5
		c0.2,0.1,0.4,0.2,0.5,0.3c0.4,0.2,0.9,0.4,1.3,0.5c0.3,0.1,0.5,0.2,0.8,0.3c0.4,0.2,0.9,0.3,1.4,0.4c0.2,0.1,0.2,0.1,0.4,0.1
		c0.3,0.1,0.6,0.2,0.8,0.2c0.1,0,0.2,0.1,0.4,0.1c0.1,0,0.1,0,0.2,0c0.2,0.1,0.4,0.1,0.7,0.2c0.4,0.1,0.8,0.2,1.2,0.2
		c0.2,0,0.2,0,0.3,0.1c0.2,0,0.3,0.1,0.5,0.1c0.1,0,0.1,0,0.3,0c0.1,0,0.1,0,0.3,0c0.2,0,0.4,0.1,0.6,0.1c0.1,0,0.2,0,0.3,0
		c0.2,0,0.2,0,0.5,0.1c0.2,0,0.4,0,0.6,0c0.6,0,0.6,0,0.8,0.1c0.2,0.1,0.5,0.1,0.7,0.1c0.1,0,0.1,0,0.2,0c0.2,0,0.3,0,0.5,0
		c0.2,0,0.3,0,0.5,0c0.2,0,0.3,0,0.5,0c0.2,0,0.4,0,0.6,0.1c0.4,0,0.9,0.1,1.3,0.1c0.1,0,0.2,0,0.3,0c0.2,0,0.4,0,0.5,0
		c0.3,0,0.5,0,0.8,0c1.1,0,2.1,0,3.2-0.2c0.4,0,0.8-0.1,1.1-0.1c0.3,0,0.3,0,0.6-0.1c0.3-0.1,0.6-0.1,0.9-0.1c0.4,0,0.7-0.1,1-0.2
		c0.3-0.1,0.7-0.1,1-0.1c0.6-0.1,1.2-0.2,1.8-0.4c0.3-0.1,0.5-0.1,0.8-0.2c1-0.2,1.9-0.4,2.8-0.8c0.2-0.1,0.4-0.1,0.6-0.2
		c0.5-0.2,1-0.3,1.5-0.6c0.2-0.1,0.4-0.2,0.6-0.2c1.3-0.5,2.6-1.3,3.7-2.2c0.1-0.1,0.2-0.1,0.2-0.2c0.3-0.2,0.3-0.2,0.6-0.5
		c0-0.1,0-0.1,0-0.2C88.9,20,89,20,89,20c0-0.1,0-0.1,0-0.2c0.1,0,0.1,0,0.2,0c0.1-0.1,0.1-0.1,0.2-0.3c0-0.1,0.1-0.1,0.1-0.2
		c0-0.1,0.1-0.1,0.1-0.2c0.1-0.1,0.1-0.1,0.1-0.2c0.7-1,0.9-2,0.7-3.2c-0.1-0.6-0.5-1.2-0.8-1.7c-0.1,0-0.1,0-0.2,0
		c0-0.1,0-0.1-0.1-0.1c-0.3-0.5-0.7-1-1.2-1.3c-0.1,0-0.1,0-0.2,0c0-0.1,0-0.1,0-0.2c-0.2-0.1-0.3-0.2-0.5-0.4
		c-0.1,0-0.1-0.1-0.2-0.1c-1.3-0.9-1.3-0.9-2.7-1.4c0-0.1,0-0.1,0-0.2c-0.1,0-0.1,0-0.2-0.1c-0.4-0.1-0.7-0.3-1.1-0.4
		C83,10,82.7,9.9,82.3,9.8c-0.2-0.1-0.3-0.1-0.5-0.2c-0.3-0.1-0.7-0.2-1-0.3c-0.2-0.1-0.2-0.1-0.4-0.1C80.1,9,79.9,9,79.6,8.9
		c-0.3-0.1-0.5-0.1-0.8-0.2c-0.2-0.1-0.4-0.1-0.6-0.1c-0.5,0-0.9-0.1-1.4-0.3c-0.3-0.1-0.6-0.1-0.9-0.1c-0.5,0-0.9-0.1-1.4-0.2
		c-0.5-0.1-1.1-0.1-1.6-0.2c-0.2,0-0.5,0-0.7-0.1c-0.3-0.1-0.7-0.1-1-0.1c-0.1,0-0.2,0-0.2,0c-1,0-1.9,0-2.9,0c-0.3,0-0.6,0-0.9,0
		C66.3,7.6,65.3,7.6,64.4,7.7z M6.6,18.3c-0.1,0-0.2,0-0.3,0.1C5.8,18.5,5.5,18.7,5,19c-0.2,0.1-0.4,0.3-0.6,0.4
		c-0.1,0.1-0.1,0.1-0.2,0.2c0,0.1,0,0.1,0,0.2c-0.1,0-0.1,0-0.2,0c-1.1,1.2-1.6,2.6-1.6,4.2c0,0.1,0,0.2,0,0.3c0,0.3,0,0.6,0,0.9
		c0,0.2,0,0.4,0,0.6c0,0.5,0,0.9,0,1.4c0,0.7,0,1.4,0,2.1c0,1.3,0,2.6,0,3.9c0,1,0,2,0,3c0,0.1,0,0.3,0,0.4c0,0.2,0,0.4,0,0.7
		c0,2,0,4.1,0,6.1c0,0.1,0,0.2,0,0.2c0,0.4,0,0.8,0,1.2c0,0.1,0,0.2,0,0.2c0,0.2,0,0.3,0,0.5c0,2.4,0,4.8,0,7.3c0,2.7,0,5.4,0,8.2
		c0,0.3,0,0.6,0,0.9c0,0.1,0,0.1,0,0.2c0,1.1,0,2.2,0,3.2c0,1.2,0,2.5,0,3.7c0,0.7,0,1.4,0,2.1c0,0.5,0,0.9,0,1.4c0,0.3,0,0.5,0,0.8
		c0,0.3,0,0.6,0,0.8c0,0.1,0,0.2,0,0.2c0,1.5,0.7,3,1.7,4c0.3,0.3,0.3,0.3,0.7,0.5c0,0.1,0,0.1,0,0.2c0.1,0,0.1,0.1,0.2,0.1
		c0.1,0,0.2,0.1,0.2,0.1c0.1,0,0.2,0.1,0.3,0.1c0.1,0.1,0.3,0.1,0.4,0.2c1.1,0.6,2.4,0.5,3.6,0.5c0.1,0,0.3,0,0.4,0
		c0.4,0,0.8,0,1.2,0c0.4,0,0.9,0,1.3,0c0.8,0,1.5,0,2.3,0c1.1,0,2.2,0,3.3,0c1.9,0,3.8,0,5.6,0c0.1,0,0.1,0,0.2,0c0.1,0,0.1,0,0.2,0
		c1.7,0,3.5,0,5.2,0c0.1,0,0.2,0,0.4,0c0.5,0,0.9,0,1.4,0c1.3,0,2.6,0,3.9,0c0.1,0,0.1,0,0.2,0c1.9,0,3.8,0,5.7,0c0.1,0,0.1,0,0.2,0
		c1,0,2,0,3,0c4,0,8,0,11.9,0c1,0,2,0,3,0c0.1,0,0.1,0,0.2,0c1.9,0,3.8,0,5.7,0c0.1,0,0.1,0,0.2,0c1.3,0,2.6,0,3.9,0
		c0.5,0,0.9,0,1.4,0c0.1,0,0.2,0,0.3,0c1.7,0,3.5,0,5.2,0c0.1,0,0.1,0,0.2,0c0.1,0,0.1,0,0.2,0c1.9,0,3.8,0,5.8,0c1.1,0,2.2,0,3.3,0
		c0.7,0,1.5,0,2.2,0c0.4,0,0.8,0,1.3,0c0.4,0,0.8,0,1.2,0c0.1,0,0.3,0,0.4,0c1.2,0,1.2,0,2.3-0.1c0,0,0.1-0.1,0.1-0.1
		c0.1,0,0.2,0,0.2,0c0.4,0,0.6-0.2,1-0.4c0.1,0,0.1-0.1,0.2-0.1c0.1-0.1,0.2-0.1,0.3-0.2c0.2-0.1,0.3-0.2,0.5-0.2c0-0.1,0-0.1,0-0.2
		c0,0,0.1,0,0.1-0.1c0.5-0.3,0.8-0.6,1.1-1c0,0,0.1-0.1,0.1-0.1c0.3-0.4,0.5-0.8,0.7-1.3c0-0.1,0.1-0.2,0.1-0.3
		c0.2-0.7,0.3-1.3,0.3-2c0-0.1,0-0.2,0-0.3c0-0.3,0-0.6,0-0.9c0-0.2,0-0.4,0-0.6c0-0.5,0-0.9,0-1.4c0-0.7,0-1.4,0-2.1
		c0-1.3,0-2.6,0-3.9c0-1,0-2,0-3c0-0.1,0-0.3,0-0.4c0-0.2,0-0.4,0-0.7c0-2,0-4.1,0-6.1c0-0.1,0-0.2,0-0.2c0-0.4,0-0.8,0-1.2
		c0-0.1,0-0.2,0-0.2c0-0.2,0-0.3,0-0.5c0-2.4,0-4.8,0-7.3c0-2.7,0-5.4,0-8.2c0-0.3,0-0.6,0-0.9c0-0.1,0-0.1,0-0.2c0-1.1,0-2.2,0-3.2
		c0-1.2,0-2.5,0-3.7c0-0.7,0-1.4,0-2.1c0-0.5,0-0.9,0-1.4c0-0.3,0-0.5,0-0.8c0-0.3,0-0.6,0-0.8c0-0.1,0-0.2,0-0.2
		c0-1.4-0.6-2.9-1.6-3.9c-0.1,0-0.1,0-0.2,0c0-0.1,0-0.1,0-0.2c-0.7-0.7-1.6-1.2-2.5-1.4c-0.2,0-0.2,0-0.3,0.1c0,0.1,0,0.1,0,0.2
		c0,3,0,6,0,9.1c0,0.4,0,0.7,0,1.1c0,0.1,0,0.1,0,0.2c0,1.2,0,2.3,0,3.5c0,1.2,0,2.4,0,3.6c0,0.7,0,1.5,0,2.2c0,0.5,0,1,0,1.5
		c0,0.3,0,0.6,0,0.9c0,2.9,0,2.9-0.6,4.3c0,0.1,0,0.1-0.1,0.2c-0.2,0.4-0.5,0.8-0.7,1.1c-0.1,0.2-0.2,0.4-0.3,0.6
		c-0.1,0-0.1,0-0.2,0C91,46.9,91,46.9,90.8,47c-0.4,0.4-0.8,0.8-1.2,1.2c-0.1,0.1-0.1,0.1-0.1,0.1c-1.4,1-2.9,2-4.5,2.6
		c-0.2,0.1-0.4,0.2-0.5,0.2c-0.3,0.1-0.6,0.2-1,0.3c-0.3,0.1-0.5,0.2-0.7,0.3c-0.5,0.2-1,0.3-1.5,0.4c-0.3,0.1-0.6,0.2-0.9,0.3
		c-0.4,0.1-0.7,0.2-1.1,0.3c-0.2,0.1-0.5,0.1-0.7,0.2c-0.4,0.1-0.7,0.1-1.1,0.2c-0.2,0-0.4,0.1-0.6,0.1c-0.7,0.2-1.5,0.3-2.2,0.3
		c-0.2,0-0.3,0-0.5,0.1c-4.1,0.5-9.2,0.9-13.2-0.1c-0.2,0-0.3,0-0.5,0c-0.5,0-0.9-0.1-1.4-0.2c-0.1,0-0.1,0-0.2,0
		c-0.4-0.1-0.4-0.1-0.6-0.2c-0.1,0-0.2,0-0.3,0c-0.4,0-0.8-0.1-1.2-0.3c-0.3-0.1-0.6-0.2-0.9-0.2c-0.3-0.1-0.7-0.2-1-0.3
		c-0.2-0.1-0.2-0.1-0.5-0.1c-0.3-0.1-0.6-0.2-0.9-0.3c-0.2-0.1-0.5-0.2-0.7-0.2c-0.5-0.2-1.1-0.3-1.6-0.6C51.2,51.1,51,51,50.8,51
		c-0.5-0.2-1-0.5-1.5-0.7c-0.1-0.1-0.3-0.1-0.4-0.2c-1-0.5-1.9-1.1-2.8-1.8c-0.2-0.1-0.3-0.2-0.5-0.3c0-0.1,0-0.1,0-0.2
		c-0.1-0.1-0.1-0.1-0.3-0.2c-0.4-0.3-0.8-0.7-1.1-1.2c-0.1,0-0.1,0-0.2,0c-0.1-0.2-0.2-0.4-0.2-0.6c-0.1,0-0.1,0-0.2,0
		c0-0.1,0-0.1-0.1-0.2c-0.1-0.2-0.2-0.4-0.3-0.6c-0.4-1-0.6-1.9-0.6-2.9c0-0.1,0-0.2,0-0.3c0-0.3,0-0.6,0-0.9c0-0.3,0-0.6,0-0.9
		c0-0.5,0-1.1,0-1.6c0-0.8,0-1.5,0-2.3c0-1.2,0-2.5,0-3.7c0-1.2,0-2.4,0-3.6c0-0.1,0-0.1,0-0.2c0-0.4,0-0.7,0-1.1c0-3.1,0-6.2,0-9.3
		c-4.4,0-8.9,0-13.3,0c-0.5,0-1,0-1.6,0c-0.1,0-0.2,0-0.3,0c-1.7,0-3.4,0-5.1,0c-1.7,0-3.5,0-5.2,0c-1.1,0-2.1,0-3.2,0
		c-0.7,0-1.5,0-2.2,0c-0.4,0-0.8,0-1.3,0c-0.4,0-0.8,0-1.2,0c-0.1,0-0.3,0-0.4,0C8.1,18,7.4,18,6.6,18.3z M45.1,22
		c0,1.1,0,2.1,0,3.2c0,0.5,0,1,0,1.5c0,0.5,0,0.9,0,1.4c0,0.2,0,0.4,0,0.5c0,1.2,0,2.2,0.7,3.2c0.1,0,0.1,0,0.2,0c0,0.1,0,0.2,0,0.2
		c0.1,0,0.1,0,0.2,0c0,0,0,0.1,0.1,0.1c1,2,3.9,3.3,5.9,4c0.2,0.1,0.3,0.1,0.5,0.2c0.4,0.2,0.8,0.3,1.2,0.4c0.2,0.1,0.4,0.1,0.7,0.2
		c0.4,0.2,0.8,0.3,1.3,0.3c0.3,0.1,0.3,0.1,0.4,0.1c0.2,0.1,0.4,0.1,0.6,0.2c0.1,0,0.1,0,0.2,0c0.1,0,0.2,0,0.2,0
		c0.2,0,0.3,0.1,0.5,0.1c0.1,0,0.1,0,0.2,0c0.2,0,0.2,0,0.3,0.1c0.1,0,0.2,0,0.4,0c0.3,0,0.3,0,0.5,0.1c0.2,0,0.4,0.1,0.6,0.1
		c0.6,0.1,0.6,0.1,0.8,0.2c0.2,0,0.4,0,0.6,0c0.5,0,0.5,0,0.8,0.1c0.2,0,0.3,0,0.5,0c0.1,0,0.2,0,0.3,0c0.1,0,0.2,0,0.3,0
		c0.2,0,0.4,0,0.6,0c0.1,0,0.2,0,0.2,0c0.2,0,0.2,0,0.5,0.1c0.3,0,0.6,0.1,0.9,0.1c0.1,0,0.1,0,0.2,0c0.2,0,0.4,0,0.7,0
		c0.2,0,0.3,0,0.5,0c0.3,0,0.6,0,1,0c0.4,0,0.8,0,1.2,0c0.3,0,0.6,0,1,0c0.2,0,0.3,0,0.5,0c1,0,2-0.1,3-0.2c0.1,0,0.1,0,0.2,0
		c0.2,0,0.3,0,0.5-0.1c0.4-0.1,0.8-0.1,1.2-0.1c0.4,0,0.8-0.1,1.2-0.2c0.2,0,0.4,0,0.6-0.1c0.2,0,0.2,0,0.3-0.1c0.2,0,0.4,0,0.6,0
		c0.2,0,0.2,0,0.4-0.1c0.3-0.1,0.7-0.2,1.1-0.2c0.3-0.1,0.6-0.1,0.9-0.2c0.2,0,0.4-0.1,0.5-0.1c0.4-0.1,0.8-0.2,1.2-0.4
		c0.2-0.1,0.5-0.2,0.7-0.2c1.7-0.5,3.2-1.3,4.7-2.1c0-0.1,0-0.1,0-0.2c0.1,0,0.1,0,0.1,0c0.3-0.1,0.4-0.2,0.7-0.4
		c0.1-0.1,0.2-0.1,0.2-0.2c0.1-0.1,0.1-0.1,0.2-0.2c0.1,0,0.1-0.1,0.2-0.1c0,0,0.1-0.1,0.1-0.1c0-0.1,0-0.1,0-0.2c0,0,0.1,0,0.1,0
		c0.3-0.2,0.5-0.4,0.7-0.6c0-0.1,0-0.1,0-0.2c0.1,0,0.1,0,0.2,0c1.2-1.4,1.1-3,1.1-4.8c0-0.2,0-0.3,0-0.5c0-0.4,0-0.9,0-1.3
		c0-0.4,0-0.9,0-1.3c0-0.9,0-1.7,0-2.6c-0.4,0.1-0.4,0.1-0.6,0.4c0,0.1,0,0.1,0,0.2c-0.1,0-0.1,0-0.1,0.1c-0.2,0.1-0.4,0.2-0.6,0.3
		C89.1,23,89.1,23,89,23.1c-0.1,0.1-0.1,0.1-0.1,0.1c0,0.1,0,0.1,0,0.2c-0.1,0-0.1,0-0.2,0.1c-0.2,0.1-0.4,0.2-0.6,0.4
		c-0.4,0.3-0.8,0.5-1.2,0.7c-0.2,0.1-0.2,0.1-0.5,0.3c-0.3,0.2-0.5,0.3-0.8,0.4c-0.2,0.1-0.3,0.2-0.5,0.2c-0.3,0.2-0.7,0.3-1,0.4
		c-0.4,0.1-0.7,0.3-1.1,0.4c-0.5,0.2-0.9,0.3-1.4,0.5c-0.1,0-0.1,0-0.2,0.1c-0.4,0.1-0.7,0.2-1.1,0.2c-0.1,0-0.1,0-0.2,0.1
		c-0.3,0.1-0.5,0.2-0.8,0.2c-0.4,0.1-0.8,0.2-1.2,0.3c-0.5,0.1-1,0.2-1.5,0.3c-0.2,0-0.4,0.1-0.7,0.1c-0.7,0.1-1.4,0.2-2,0.2
		c-0.3,0-0.6,0.1-0.9,0.1c-0.6,0.1-1.1,0.1-1.7,0.1c-0.1,0-0.1,0-0.2,0c-0.1,0-0.1,0-0.2,0c-0.2,0-0.3,0-0.5,0.1
		c-0.5,0.1-0.9,0-1.4,0c-0.1,0-0.2,0-0.3,0c-0.2,0-0.4,0-0.6,0c-0.3,0-0.6,0-0.9,0c-0.2,0-0.4,0-0.6,0c-0.1,0-0.2,0-0.3,0
		c-0.4,0-0.9,0-1.3-0.1c-0.3,0-0.5,0-0.8-0.1c-0.1,0-0.2,0-0.3,0c-0.2,0-0.3,0-0.5,0c-0.2,0-0.3,0-0.5,0c-0.1,0-0.2,0-0.3,0
		c-0.2,0-0.2,0-0.5-0.1c-0.2,0-0.4,0-0.6,0c-0.7,0-1.5-0.2-2.2-0.3c-0.1,0-0.1,0-0.2,0c-0.6-0.1-1.2-0.2-1.9-0.4
		c-0.4-0.1-0.8-0.1-1.2-0.2c-0.3-0.1-0.6-0.1-0.9-0.2c-0.1,0-0.2,0-0.3,0c-0.3,0-0.5-0.1-0.8-0.2c-0.3-0.1-0.7-0.2-1-0.3
		c-0.4-0.1-0.7-0.2-1.1-0.4c-0.1,0-0.1-0.1-0.2-0.1c-0.2-0.1-0.5-0.2-0.7-0.3c-0.1,0-0.2-0.1-0.2-0.1c-0.1,0-0.2-0.1-0.2-0.1
		c-0.1,0-0.1-0.1-0.2-0.1c-0.2-0.1-0.2-0.1-0.4-0.2c-0.2-0.1-0.2-0.1-0.4-0.1c0-0.1,0-0.1,0-0.2c0,0-0.1,0-0.1,0
		c-0.5-0.2-1-0.5-1.5-0.8c-0.2-0.1-0.3-0.2-0.5-0.3c-0.3-0.2-0.6-0.4-1-0.6c-0.2-0.2-0.2-0.2-0.5-0.2c0-0.1,0-0.1,0-0.2
		c-0.2-0.1-0.2-0.1-0.3-0.3c-0.1-0.1-0.1-0.1-0.2-0.1c-0.2-0.1-0.2-0.1-0.4-0.2c0-0.1,0-0.1,0-0.2C45.2,22,45.1,22,45.1,22z
		 M45.1,34.7c0,1.1,0,2.1,0,3.2c0,0.5,0,1,0,1.5c0,0.5,0,1,0,1.4c0,0.2,0,0.4,0,0.5c0,1.4,0,1.4,0.4,2.7c0,0.1,0.1,0.2,0.1,0.3
		c0.1,0.1,0.1,0.1,0.1,0.2c0.1,0,0.1,0,0.2,0c0,0.1,0,0.1,0.1,0.2c0.1,0.2,0.1,0.2,0.2,0.4c0.1,0,0.1,0,0.2,0c0,0,0,0.1,0.1,0.1
		c0.1,0.2,0.3,0.4,0.5,0.6c0.1,0.1,0.1,0.1,0.2,0.2c0.1,0.2,0.1,0.2,0.3,0.1c0,0.1,0,0.1,0,0.2c0.1,0.1,0.1,0.1,0.3,0.2
		c0,0,0.1,0.1,0.1,0.1c0.1,0.1,0.1,0.1,0.3,0.1c0,0.1,0,0.1,0,0.2c0.1,0.1,0.1,0.1,0.3,0.2c0.1,0,0.1,0.1,0.2,0.1
		c0.1,0,0.1,0.1,0.2,0.1c0.1,0,0.2,0.1,0.2,0.1c1,0.6,2.1,1.1,3.2,1.5c0.1,0,0.1,0.1,0.2,0.1c0.4,0.2,0.8,0.3,1.2,0.4
		c0.2,0.1,0.4,0.1,0.6,0.2c0.5,0.2,1,0.3,1.5,0.4c0.2,0,0.4,0.1,0.6,0.2c0.9,0.3,1.8,0.4,2.8,0.6c0.1,0,0.2,0,0.3,0
		c0.1,0,0.1,0,0.2,0c0.2,0,0.2,0,0.3,0.1c0.2,0,0.4,0.1,0.6,0.1c0.1,0,0.1,0,0.2,0c0.2,0,0.4,0,0.6,0.1s0.4,0,0.6,0.1
		c0.1,0,0.2,0,0.4,0c0.2,0,0.4,0,0.7,0.1c0.3,0.1,0.6,0.1,0.9,0.1c0.1,0,0.1,0,0.2,0c0.2,0,0.4,0,0.7,0c0.1,0,0.1,0,0.2,0
		c2,0.1,4,0.1,6,0c0.1,0,0.1,0,0.2,0c0.7,0,1.5-0.1,2.2-0.2c0.6-0.1,1.1-0.1,1.7-0.2c0.5-0.1,1-0.1,1.4-0.2c0.1,0,0.2,0,0.3,0
		c0.4,0,0.7-0.1,1-0.2c0.4-0.1,0.7-0.2,1.1-0.2c0.5-0.1,1-0.2,1.5-0.4c0.3-0.1,0.5-0.2,0.8-0.2c0.4-0.1,0.7-0.2,1.1-0.3
		c0.1,0,0.3-0.1,0.4-0.1c0.4-0.1,0.8-0.3,1.2-0.5c0.2-0.1,0.3-0.1,0.5-0.2c0.6-0.2,1.2-0.6,1.8-0.9c0.2-0.1,0.3-0.2,0.5-0.2
		c0-0.1,0-0.1,0-0.2c0.1,0,0.1,0,0.2-0.1c0.3-0.1,0.5-0.3,0.8-0.4c0-0.1,0-0.1,0-0.2c0.1,0,0.1,0,0.2,0c0.3-0.2,0.5-0.4,0.8-0.6
		c0.1,0,0.1-0.1,0.2-0.1c0.9-0.8,1.6-1.7,1.7-3c0-0.1,0-0.1,0-0.2c0.1-0.8,0.1-1.5,0.1-2.3c0-0.2,0-0.3,0-0.5c0-0.4,0-0.8,0-1.3
		c0-0.4,0-0.9,0-1.3c0-0.8,0-1.7,0-2.5c-0.3,0.1-0.5,0.2-0.7,0.4c-0.1,0-0.1,0.1-0.2,0.1c0,0-0.1,0.1-0.1,0.1c0,0.1,0,0.1,0,0.2
		c-0.1,0-0.1,0-0.2,0.1c-0.2,0.1-0.4,0.2-0.6,0.4c-0.3,0.3-0.6,0.4-1,0.6c0,0.1,0,0.1,0,0.2c-0.1,0-0.1,0-0.1,0
		c-0.3,0.1-0.5,0.2-0.8,0.4c-0.1,0.1-0.2,0.1-0.3,0.2c-0.1,0-0.1,0.1-0.2,0.1c-0.5,0.3-1,0.5-1.6,0.7c-0.2,0.1-0.4,0.2-0.6,0.2
		c-0.3,0.1-0.6,0.2-0.9,0.3c-0.2,0.1-0.4,0.1-0.6,0.2c-0.3,0.1-0.5,0.2-0.8,0.3c-0.2,0-0.3,0.1-0.5,0.1c-0.4,0.1-0.9,0.2-1.3,0.3
		c-0.3,0.1-0.3,0.1-0.6,0.2c-0.1,0-0.2,0-0.3,0c-0.3,0-0.6,0.1-0.9,0.2c-0.4,0.1-0.9,0.2-1.3,0.2c-0.2,0-0.4,0.1-0.7,0.1
		c-0.6,0.2-1.3,0.2-1.9,0.2c-0.3,0-0.6,0-0.9,0.1c-0.5,0.1-1,0.1-1.5,0.1c-0.1,0-0.1,0-0.2,0c-0.1,0-0.1,0-0.2,0
		c-0.2,0-0.2,0-0.4,0.1c-0.3,0-0.6,0.1-0.9,0c-0.1,0-0.1,0-0.2,0c-0.2,0-0.4,0-0.6,0c-0.1,0-0.3,0-0.4,0c-0.3,0-0.6,0-0.9,0
		c-0.4,0-0.8,0-1.1,0c-0.3,0-0.6,0-0.9,0c-0.1,0-0.3,0-0.4,0c-0.2,0-0.4,0-0.6,0c-0.1,0-0.1,0-0.2,0c-0.3,0-0.6,0-0.9-0.1
		c-0.1,0-0.2,0-0.4,0c-0.1,0-0.1,0-0.2,0c-0.1,0-0.1,0-0.2,0c-0.5,0-1-0.1-1.5-0.2c-0.3,0-0.5-0.1-0.8-0.1c-0.5,0-0.9-0.1-1.4-0.2
		c-0.1,0-0.1,0-0.2,0c-0.4-0.1-0.4-0.1-0.6-0.2c-0.1,0-0.2,0-0.4,0c-0.4,0-0.8-0.1-1.2-0.2c-0.4-0.1-0.7-0.2-1.1-0.2
		c-0.5-0.1-1.1-0.2-1.6-0.4c-0.1,0-0.1,0-0.2-0.1c-0.4-0.1-0.7-0.2-1.1-0.4c-0.3-0.1-0.5-0.2-0.8-0.3c-1.1-0.4-2.1-0.8-3.1-1.3
		c-0.1-0.1-0.3-0.1-0.4-0.2c-1-0.5-2-1.1-2.8-1.8c-0.1-0.1-0.3-0.2-0.4-0.3c-0.1-0.1-0.1-0.1-0.2-0.2C45.4,34.9,45.3,34.8,45.1,34.7
		z M43.1,82.3c0.1,0.4,0.1,0.4,0.2,0.8c0.1,0.3,0.2,0.6,0.2,0.9c0.1,0.1,0.1,0.3,0.2,0.4c0.7,2.7,0.6,5.8-0.5,8.4
		c-0.1,0.3-0.1,0.3-0.1,0.6c4.6,0,9.1,0,13.8,0c-0.1-0.4-0.1-0.4-0.2-0.8c-0.1-0.3-0.2-0.6-0.3-0.9c0-0.1,0-0.1-0.1-0.2
		c-0.7-2.4-0.6-5.1,0.1-7.5c0.1-0.2,0.1-0.4,0.2-0.6c0.1-0.3,0.2-0.5,0.3-0.8c0.1-0.2,0.1-0.2,0.1-0.3
		C52.4,82.3,47.8,82.3,43.1,82.3z"/>
	<path d="M30.6,68.7c0.1,0,0.1,0,0.2,0c0.2,0,0.4,0,0.6,0c0.1,0,0.3,0,0.4,0c0.4,0,0.7,0,1.1,0c0.4,0,0.8,0,1.2,0c0.8,0,1.6,0,2.3,0
		c0.6,0,1.3,0,1.9,0c0.1,0,0.2,0,0.3,0c0.2,0,0.4,0,0.6,0c1.7,0,3.4,0,5.2,0c1.6,0,3.1,0,4.7,0c1.6,0,3.2,0,4.8,0c0.9,0,1.8,0,2.7,0
		c0.8,0,1.5,0,2.3,0c0.4,0,0.8,0,1.2,0c0.4,0,0.7,0,1.1,0c0.1,0,0.3,0,0.4,0c0.2,0,0.4,0,0.5,0c0.1,0,0.2,0,0.3,0
		c0.4,0,0.7,0.2,1.1,0.5c0.2,0.3,0.3,0.7,0.2,1.1c-0.1,0.4-0.4,0.7-0.7,0.9c-0.2,0.1-0.5,0.1-0.7,0.1c-0.1,0-0.1,0-0.2,0
		c-0.2,0-0.4,0-0.6,0c-0.1,0-0.3,0-0.4,0c-0.4,0-0.7,0-1.1,0c-0.4,0-0.8,0-1.2,0c-0.8,0-1.6,0-2.4,0c-0.6,0-1.3,0-1.9,0
		c-0.1,0-0.1,0-0.3,0c-0.2,0-0.4,0-0.6,0c-1.7,0-3.5,0-5.2,0c-1.6,0-3.2,0-4.8,0c-1.6,0-3.3,0-4.9,0c-0.9,0-1.8,0-2.8,0
		c-0.8,0-1.6,0-2.3,0c-0.4,0-0.8,0-1.2,0c-0.4,0-0.7,0-1.1,0c-0.1,0-0.3,0-0.4,0c-0.2,0-0.4,0-0.5,0c-0.1,0-0.1,0-0.3,0
		c-0.3,0-0.6-0.1-0.9-0.4c0,0,0-0.1-0.1-0.1c-0.1-0.1-0.1-0.3-0.2-0.4c0-0.4,0-0.6,0.2-1c0.1,0,0.1,0,0.2,0c0-0.1,0.1-0.2,0.1-0.2
		c0.1,0,0.1,0,0.2,0c0-0.1,0-0.1,0-0.2C29.9,68.7,30.2,68.7,30.6,68.7z"/>
	<path d="M67.2,60.4c0.1,0,0.2,0,0.3,0c0.1,0,0.2,0,0.3,0c0.1,0,0.2,0,0.3,0c0.3,0,0.5,0,0.8,0c0.3,0,0.6,0,0.9,0c0.6,0,1.1,0,1.7,0
		c0.5,0,0.9,0,1.4,0c1.3,0,2.6,0,3.9,0c0.1,0,0.1,0,0.2,0c0.1,0,0.1,0,0.2,0c1.1,0,2.3,0,3.4,0c1.2,0,2.4,0,3.5,0c0.7,0,1.3,0,2,0
		c0.6,0,1.1,0,1.7,0c0.3,0,0.6,0,0.9,0c0.3,0,0.6,0,0.9,0c0.1,0,0.2,0,0.3,0c0.5,0,0.9,0,1.4,0.3c0.2,0.3,0.3,0.6,0.3,0.9
		c-0.1,0.4-0.2,0.7-0.6,1c-0.3,0.2-0.4,0.2-0.7,0.2c-0.1,0-0.2,0-0.3,0c-0.1,0-0.1,0-0.3,0c-0.1,0-0.2,0-0.3,0c-0.3,0-0.5,0-0.8,0
		c-0.3,0-0.6,0-0.9,0c-0.6,0-1.2,0-1.7,0c-0.5,0-0.9,0-1.4,0c-0.1,0-0.1,0-0.2,0c-0.1,0-0.3,0-0.4,0c-1.3,0-2.6,0-3.8,0
		c-1.2,0-2.3,0-3.5,0c-1.2,0-2.4,0-3.6,0c-0.7,0-1.3,0-2,0c-0.6,0-1.1,0-1.7,0c-0.3,0-0.6,0-0.9,0c-0.3,0-0.6,0-1,0
		c-0.1,0-0.1,0-0.3,0c-0.1,0-0.2,0-0.3,0c-0.1,0-0.1,0-0.2,0c-0.2,0-0.4-0.1-0.6-0.3c0-0.1,0-0.1,0-0.2c-0.1,0-0.1,0-0.2,0
		c-0.2-0.4-0.3-0.7-0.2-1.1c0.2-0.3,0.3-0.6,0.6-0.8C66.7,60.5,67,60.4,67.2,60.4z"/>
	<path d="M32.6,37c0,0.1,0,0.1,0,0.2c0,0,0.1,0,0.1,0.1c0.1,0.1,0.2,0.1,0.3,0.2c0,0.1,0,0.1,0,0.2c0.1,0,0.1,0,0.2,0.1
		c0.2,0.1,0.4,0.2,0.5,0.3c0,0.1,0,0.1,0,0.2c0,0,0.1,0,0.1,0.1c0.2,0.1,0.4,0.3,0.6,0.5c0.2,0.2,0.4,0.4,0.7,0.5c0,0.1,0,0.1,0,0.2
		c0,0,0.1,0,0.1,0.1c0.2,0.1,0.5,0.3,0.7,0.4c0,0.1,0,0.1,0,0.2c0.1,0,0.1,0,0.1,0.1c0.2,0.1,0.4,0.3,0.6,0.4
		c0.3,0.2,0.3,0.2,0.6,0.5c0,0,0.1,0.1,0.1,0.1c0,0.1,0,0.1,0,0.2c0.1,0,0.1,0,0.2,0.1c0.2,0.1,0.4,0.2,0.5,0.3c0,0.1,0,0.1,0,0.2
		c0,0,0.1,0,0.1,0.1c0.1,0.1,0.2,0.1,0.3,0.2c0,0.1,0,0.1,0,0.2c0,0,0.1,0,0.1,0.1c0.2,0.1,0.3,0.2,0.5,0.3c0.1,0,0.1,0.1,0.2,0.1
		c0,0,0.1,0.1,0.1,0.1c0,0.1,0,0.1,0,0.2c0,0,0.1,0,0.1,0.1c0.2,0.1,0.5,0.3,0.7,0.4c0,0.1,0,0.1,0,0.2c0.1,0,0.1,0,0.2,0
		c0.2,0.4,0.3,0.7,0.2,1.1c-0.2,0.5-0.6,0.9-1,1.2c-0.1,0-0.1,0-0.2,0c0,0.1,0,0.1,0,0.2c-0.1,0.1-0.1,0.1-0.3,0.3
		c-0.1,0-0.1,0.1-0.2,0.1c-0.1,0-0.1,0.1-0.2,0.1c-0.1,0-0.1,0.1-0.2,0.1c-0.1,0.1-0.1,0.1-0.3,0.1c0,0.1,0,0.1,0,0.2
		c-0.2,0.1-0.3,0.3-0.5,0.4c-0.1,0.1-0.2,0.2-0.3,0.2c-0.1,0.1-0.1,0.1-0.1,0.1c-0.1,0.1-0.3,0.2-0.4,0.3c-0.2,0.2-0.2,0.2-0.4,0.2
		c0,0.1,0,0.1,0,0.2c-0.2,0.2-0.4,0.3-0.5,0.4c-0.1,0.1-0.1,0.1-0.2,0.1c-0.2,0.2-0.5,0.3-0.7,0.5c0,0.1,0,0.1,0,0.2
		c-0.2,0.1-0.3,0.2-0.5,0.4c0,0-0.1,0.1-0.1,0.1c-0.2,0.1-0.4,0.3-0.6,0.3c0,0.1,0,0.1,0,0.2c-0.1,0.1-0.1,0.1-0.3,0.2
		c-0.1,0-0.1,0.1-0.2,0.1c-0.2,0.1-0.2,0.1-0.3,0.1c0,0.1,0,0.1,0,0.2c-0.5,0.5-0.9,0.8-1.6,0.9c-0.4,0-0.7-0.1-0.9-0.4
		c-0.2-0.4-0.3-0.8-0.2-1.2c0.1-0.3,0.3-0.5,0.6-0.7c0,0,0.1-0.1,0.1-0.1c0.2-0.2,0.5-0.4,0.8-0.5c0-0.1,0-0.1,0-0.2
		c0.2-0.2,0.4-0.3,0.5-0.4c0.1-0.1,0.1-0.1,0.2-0.1c0.2-0.2,0.5-0.3,0.7-0.5c0-0.1,0-0.1,0-0.2c0.1,0,0.2-0.1,0.3-0.1
		c0-0.1,0-0.1,0-0.2c0.1-0.1,0.3-0.2,0.4-0.3c0.1-0.1,0.2-0.1,0.2-0.2c0.1-0.1,0.2-0.1,0.2-0.2c0.1-0.1,0.1-0.1,0.2-0.2
		c0.2-0.1,0.2-0.1,0.3-0.1c0-0.1,0-0.1,0-0.2c0.1-0.1,0.1-0.1,0.3-0.3c0.1,0,0.1-0.1,0.2-0.1c0.1,0,0.1-0.1,0.2-0.1
		c0.1,0,0.1-0.1,0.2-0.1c0.1-0.1,0.1-0.1,0.3-0.1c0-0.1,0-0.1,0.1-0.2c0.1,0,0.1,0,0.2,0c0-0.1,0-0.1,0-0.2c0.1-0.1,0.1-0.1,0.3-0.2
		c0,0,0.1-0.1,0.1-0.1c0.1-0.1,0.1-0.1,0.3-0.1c0-0.1,0-0.1,0-0.2c0.1,0,0.1-0.1,0.2-0.1c0-0.2,0-0.2-0.1-0.3
		C37.2,44,37.2,44,37.1,44c0-0.1,0-0.1,0-0.2c0,0-0.1,0-0.1-0.1c-0.2-0.1-0.5-0.3-0.7-0.4c0-0.1,0-0.1,0-0.2c0,0-0.1,0-0.1-0.1
		c-0.3-0.1-0.5-0.3-0.8-0.5c-0.1,0-0.1-0.1-0.2-0.1c-0.1-0.1-0.3-0.2-0.4-0.3c0-0.1,0-0.1,0-0.2c-0.1,0-0.1,0-0.2,0
		c-0.3-0.1-0.5-0.3-0.7-0.5c-0.1-0.1-0.1-0.1-0.3-0.2c0-0.1,0-0.1,0-0.2c0,0-0.1,0-0.1-0.1c-0.2-0.1-0.3-0.2-0.5-0.3
		c-0.1,0-0.1-0.1-0.2-0.1c0,0-0.1-0.1-0.1-0.1c0-0.1,0-0.1,0-0.2c0,0-0.1,0-0.1-0.1c-0.2-0.1-0.4-0.3-0.6-0.4
		c-0.3-0.2-0.5-0.4-0.8-0.6C31.1,39.1,31,39,31,39c0-0.1,0-0.1,0-0.2c-0.1,0-0.2-0.1-0.2-0.1c0-0.1,0-0.1,0-0.2c-0.1,0-0.1,0-0.2,0
		c-0.2-0.4-0.2-0.8-0.1-1.3c0.2-0.2,0.2-0.2,0.4-0.4c0.1-0.1,0.1-0.1,0.2-0.2C31.5,36.6,32.1,36.6,32.6,37z"/>
	<path d="M18.2,36.9c0.3,0.3,0.4,0.5,0.4,0.9c0,0.4,0,0.6-0.2,0.9c-0.1,0.1-0.2,0.1-0.2,0.2c-0.1,0.1-0.2,0.2-0.3,0.3
		c-0.3,0.3-0.3,0.3-0.5,0.3c0,0.1,0,0.1,0,0.2c-0.1,0.1-0.1,0.1-0.3,0.3c-0.1,0-0.1,0.1-0.2,0.1c-0.1,0-0.1,0.1-0.2,0.1
		c-0.1,0-0.1,0.1-0.2,0.1c-0.1,0.1-0.1,0.1-0.3,0.1c0,0.1,0,0.1,0,0.2c-0.1,0.1-0.1,0.1-0.3,0.2c-0.4,0.3-0.7,0.6-1.1,0.9
		c-0.2,0.1-0.2,0.1-0.3,0.1c0,0.1,0,0.1,0,0.2c-0.3,0.2-0.3,0.2-0.5,0.2c0,0.1,0,0.1,0,0.2c-0.1,0.1-0.1,0.1-0.3,0.3
		c-0.1,0.1-0.1,0.1-0.2,0.1c-0.2,0.1-0.2,0.1-0.4,0.2c0,0.1,0,0.1,0,0.2c-0.2,0.1-0.3,0.2-0.5,0.4c0,0-0.1,0.1-0.1,0.1
		c-0.2,0.1-0.4,0.3-0.6,0.3c0,0.1,0,0.1,0,0.2c-0.1,0-0.1,0-0.2,0.1c0,0.1,0,0.1-0.1,0.2c0,0,0.1,0,0.1,0.1c0.2,0.1,0.4,0.3,0.6,0.5
		c0.2,0.2,0.4,0.4,0.7,0.5c0,0.1,0,0.1,0,0.2c0.1,0,0.1,0,0.1,0.1c0.2,0.1,0.4,0.3,0.7,0.4c0,0.1,0,0.1,0,0.2c0,0,0.1,0,0.1,0.1
		c0.3,0.1,0.5,0.3,0.8,0.5c0.1,0,0.1,0.1,0.2,0.1c0.1,0.1,0.3,0.2,0.4,0.3c0,0.1,0,0.1,0,0.2c0.1,0,0.1,0,0.2,0.1
		c0.2,0.1,0.4,0.2,0.5,0.3c0,0.1,0,0.1,0,0.2c0,0,0.1,0,0.1,0.1c0.1,0.1,0.2,0.1,0.3,0.2c0,0.1,0,0.1,0,0.2c0,0,0.1,0,0.1,0.1
		c0.2,0.1,0.3,0.2,0.5,0.3c0.1,0,0.1,0.1,0.2,0.1c0,0,0.1,0.1,0.1,0.1c0,0.1,0,0.1,0,0.2c0,0,0.1,0,0.1,0.1c0.2,0.1,0.4,0.3,0.7,0.4
		c0,0.1,0,0.1,0,0.2c0.1,0,0.1,0,0.2,0c0.3,0.3,0.4,0.6,0.4,1c-0.1,0.4-0.3,0.7-0.6,1c0,0-0.1,0.1-0.1,0.1c-0.5,0.1-1,0.1-1.4-0.2
		c-0.1-0.1-0.2-0.2-0.3-0.2c-0.1-0.1-0.1-0.1-0.2-0.2c0-0.1,0-0.1,0-0.2c-0.1,0-0.1,0-0.2-0.1c-0.2-0.1-0.4-0.2-0.6-0.4
		c-0.1-0.1-0.1-0.1-0.2-0.2c-0.1-0.1-0.1-0.1-0.2-0.1c0-0.1,0-0.1,0-0.2c0,0-0.1,0-0.1-0.1c-0.2-0.1-0.4-0.3-0.6-0.4
		c-0.3-0.2-0.5-0.4-0.8-0.6c-0.1-0.1-0.1-0.1-0.2-0.2c0-0.1,0-0.1,0-0.2c0,0-0.1,0-0.1-0.1c-0.1-0.1-0.2-0.1-0.3-0.2
		c0-0.1,0-0.1,0-0.2c-0.1,0-0.1,0-0.2-0.1c-0.2-0.1-0.4-0.2-0.6-0.4c-0.4-0.4-0.9-0.8-1.4-1.1c0-0.1,0-0.1,0-0.2c0,0-0.1,0-0.1-0.1
		c-0.2-0.1-0.4-0.3-0.6-0.4c-0.3-0.2-0.5-0.4-0.8-0.6c-0.1-0.1-0.1-0.1-0.2-0.2c0-0.1,0-0.1,0-0.2c-0.1,0-0.2-0.1-0.2-0.1
		c-0.2-0.4-0.2-0.8-0.2-1.2c0.2-0.5,0.7-0.9,1.2-1.2c0.1,0,0.1,0,0.2,0c0-0.1,0-0.1,0-0.2c0.2-0.2,0.2-0.2,0.4-0.3
		c0.1-0.1,0.1-0.1,0.2-0.2c0.2-0.1,0.2-0.1,0.3-0.1c0-0.1,0-0.1,0-0.2c0.3-0.2,0.3-0.2,0.5-0.2c0-0.1,0-0.1,0-0.2
		c0.2,0,0.2,0,0.3-0.1c0-0.1,0-0.1,0-0.2c0.2-0.2,0.4-0.3,0.5-0.4c0,0,0.1-0.1,0.2-0.1c0.2-0.2,0.5-0.3,0.7-0.5c0-0.1,0-0.1,0-0.2
		c0.1-0.1,0.1-0.1,0.3-0.3c0.1,0,0.1-0.1,0.2-0.1c0.1,0,0.1-0.1,0.2-0.1c0.1,0,0.1-0.1,0.2-0.1c0.1-0.1,0.1-0.1,0.3-0.1
		c0-0.1,0-0.1,0-0.2c0.2-0.1,0.3-0.3,0.5-0.4c0.1-0.1,0.2-0.2,0.3-0.2c0,0,0.1-0.1,0.1-0.1c0.1-0.1,0.3-0.2,0.4-0.3
		c0.2-0.2,0.2-0.2,0.4-0.2c0-0.1,0-0.1,0-0.2c0.2-0.1,0.3-0.3,0.5-0.4c0.1-0.1,0.1-0.1,0.1-0.1C17,36.6,17.7,36.5,18.2,36.9z"/>
	<path d="M10.5,60.4c0.1,0,0.2,0,0.2,0c0.3,0,0.5,0,0.8,0c0.2,0,0.4,0,0.6,0c0.5,0,1,0,1.5,0c0.5,0,0.9,0,1.4,0c1,0,2,0,3,0
		c0.9,0,1.8,0,2.7,0c0.9,0,1.9,0,2.8,0c0.5,0,1,0,1.6,0c0.5,0,1,0,1.5,0c0.2,0,0.4,0,0.5,0c0.2,0,0.5,0,0.7,0c0.1,0,0.1,0,0.2,0
		c0.5,0,0.9,0.1,1.3,0.4c0.3,0.4,0.3,0.8,0.3,1.2c-0.2,0.4-0.4,0.6-0.8,0.8c-0.3,0-0.5,0-0.8,0c-0.1,0-0.2,0-0.2,0
		c-0.3,0-0.5,0-0.8,0c-0.2,0-0.4,0-0.6,0c-0.5,0-0.9,0-1.4,0c-0.4,0-0.7,0-1.1,0c-0.1,0-0.1,0-0.2,0c-0.1,0-0.2,0-0.3,0
		c-1,0-2,0-3,0c-0.9,0-1.8,0-2.8,0c-0.9,0-1.9,0-2.8,0c-0.1,0-0.2,0-0.3,0c-0.1,0-0.1,0-0.2,0c-0.4,0-0.7,0-1.1,0c-0.5,0-1,0-1.5,0
		c-0.2,0-0.4,0-0.6,0c-0.3,0-0.5,0-0.8,0c-0.1,0-0.1,0-0.2,0c-0.5,0-0.8-0.1-1.1-0.4c-0.3-0.4-0.3-0.8-0.2-1.2
		c0.2-0.3,0.4-0.5,0.7-0.7C9.9,60.4,10.2,60.4,10.5,60.4z"/>
	<path d="M27,35.6c0.4,0.2,0.6,0.4,0.7,0.8c0.1,0.4,0,0.8-0.1,1.2c0,0.1,0,0.2-0.1,0.3c-0.2,0.6-0.2,0.6-0.3,0.7
		c-0.1,0.3-0.1,0.6-0.2,0.8c-0.1,0.2-0.1,0.4-0.2,0.7c0,0.2-0.1,0.4-0.1,0.6c-0.1,0.3-0.1,0.5-0.2,0.7c-0.1,0.3-0.2,0.6-0.2,0.9
		c-0.1,0.6-0.1,0.6-0.2,0.7c-0.1,0.3-0.1,0.6-0.2,0.8c-0.1,0.2-0.1,0.4-0.2,0.7c0,0.2-0.1,0.4-0.1,0.6c-0.1,0.3-0.1,0.5-0.2,0.7
		c-0.1,0.3-0.2,0.5-0.2,0.8c-0.1,0.6-0.3,1.1-0.4,1.7c-0.1,0.3-0.2,0.7-0.3,1.1c-0.1,0.3-0.1,0.6-0.3,0.9c-0.1,0.3-0.2,0.6-0.2,0.9
		c-0.3,1.2-0.3,1.2-0.7,1.6C23,53,22.7,53,22.3,53c-0.4-0.1-0.6-0.2-0.9-0.6c-0.2-0.5-0.1-1,0-1.5c0-0.1,0-0.2,0.1-0.3
		c0.1-0.4,0.2-0.8,0.3-1.1c0-0.2,0.1-0.3,0.1-0.5c0-0.1,0.1-0.3,0.1-0.5c0.1-0.4,0.2-0.8,0.3-1.2c0.1-0.3,0.1-0.6,0.3-0.9
		c0.1-0.3,0.2-0.5,0.2-0.8c0.1-0.6,0.3-1.1,0.4-1.7c0.1-0.3,0.2-0.7,0.3-1.1c0.1-0.3,0.1-0.6,0.3-0.9c0.1-0.3,0.2-0.6,0.2-0.8
		c0.1-0.5,0.2-0.9,0.3-1.4c0-0.1,0-0.2,0.1-0.3c0.1-0.3,0.1-0.3,0.2-0.5c0.1-0.2,0.1-0.5,0.2-0.7c0.1-0.3,0.1-0.5,0.2-0.7
		c0.1-0.2,0.1-0.5,0.2-0.7c0.2-0.9,0.2-0.9,0.7-1.2C26.3,35.5,26.6,35.4,27,35.6z"/>
	<path d="M24.4,26.6c0.1,0,0.1,0,0.2,0c0.2,0,0.4,0,0.5,0c0.1,0,0.3,0,0.4,0c0.3,0,0.7,0,1,0c0.2,0,0.4,0,0.6,0c0.7,0,1.3,0,2,0
		c0.8,0,1.5,0,2.3,0c0.6,0,1.2,0,1.8,0c0.4,0,0.7,0,1.1,0c0.3,0,0.7,0,1,0c0.1,0,0.2,0,0.4,0c0.6,0,1.2,0,1.8,0.3
		c0,0.1,0.1,0.2,0.1,0.2c0.1,0,0.1,0,0.2,0c0.2,0.4,0.3,0.7,0.2,1.1c-0.1,0.3-0.1,0.3-0.2,0.5c-0.1,0-0.1,0-0.2,0
		c0,0.1-0.1,0.2-0.1,0.2c-0.6,0.3-1.3,0.3-2,0.3c-0.1,0-0.3,0-0.4,0c-0.3,0-0.7,0-1,0c-0.4,0-0.7,0-1.1,0c-0.6,0-1.2,0-1.8,0
		c-0.7,0-1.4,0-2.1,0c-0.6,0-1.2,0-1.8,0c-0.4,0-0.7,0-1.1,0c-0.3,0-0.7,0-1,0c-0.1,0-0.2,0-0.4,0c-1.4,0-1.4,0-2-0.4
		c-0.3-0.4-0.3-0.8-0.3-1.3c0.2-0.4,0.4-0.6,0.8-0.8C23.7,26.6,24,26.6,24.4,26.6z"/>
	<path d="M10.4,68.7c0.1,0,0.1,0,0.2,0c0.2,0,0.4,0,0.6,0c0.1,0,0.3,0,0.4,0c0.4,0,0.7,0,1.1,0c0.2,0,0.4,0,0.7,0c0.8,0,1.6,0,2.4,0
		c0.7,0,1.5,0,2.2,0c0.6,0,1.3,0,1.9,0c0.4,0,0.7,0,1.1,0c0.4,0,0.7,0,1.1,0c0.1,0,0.3,0,0.4,0c1.2,0,1.2,0,1.8,0.4
		c0.3,0.3,0.4,0.5,0.4,0.9c-0.1,0.4-0.2,0.7-0.5,1c-0.5,0.4-1.1,0.3-1.7,0.3c-0.1,0-0.3,0-0.4,0c-0.4,0-0.7,0-1.1,0
		c-0.4,0-0.8,0-1.2,0c-0.6,0-1.3,0-1.9,0c-0.7,0-1.5,0-2.2,0c-0.7,0-1.4,0-2.2,0c-0.3,0-0.6,0-0.9,0c-0.4,0-0.7,0-1.1,0
		c-0.1,0-0.3,0-0.4,0c-0.2,0-0.4,0-0.5,0c-0.1,0-0.2,0-0.3,0c-0.4-0.1-0.7-0.2-1-0.5c-0.2-0.4-0.2-0.8-0.1-1.2
		c0.2-0.4,0.3-0.6,0.7-0.7C9.9,68.7,10.1,68.7,10.4,68.7z"/>
	<path d="M10.7,26.5c0.1,0,0.1,0,0.2,0c0.2,0,0.4,0,0.6,0c0.2,0,0.3,0,0.5,0c0.3,0,0.6,0,0.9,0c0.4,0,0.8,0,1.2,0c0.3,0,0.6,0,0.9,0
		c0.1,0,0.3,0,0.4,0c0.2,0,0.4,0,0.6,0c0.1,0,0.1,0,0.2,0c0.5,0,1,0.1,1.4,0.4c0.3,0.3,0.4,0.6,0.4,1.1c0,0.3-0.2,0.5-0.3,0.7
		c-0.1,0-0.1,0-0.2,0c0,0.1,0,0.1,0,0.2c-0.5,0.2-0.9,0.3-1.4,0.3c-0.1,0-0.1,0-0.2,0c-0.2,0-0.4,0-0.6,0c-0.1,0-0.3,0-0.5,0
		c-0.3,0-0.6,0-0.9,0c-0.4,0-0.8,0-1.2,0c-0.3,0-0.6,0-0.9,0c-0.1,0-0.3,0-0.4,0c-0.2,0-0.4,0-0.6,0c-0.1,0-0.1,0-0.2,0
		c-0.4,0-0.8-0.1-1.2-0.3c0-0.1,0-0.1,0-0.2c-0.1,0-0.2-0.1-0.2-0.1c-0.2-0.3-0.2-0.6-0.2-1C8.9,27.4,9,27.2,9.1,27
		c0.1,0,0.1,0,0.2,0c0-0.1,0-0.1,0-0.2C9.8,26.6,10.2,26.5,10.7,26.5z"/>
	<path d="M54.3,60.4c0.1,0,0.1,0,0.2,0c0.2,0,0.5,0,0.7,0c0.2,0,0.3,0,0.5,0c0.3,0,0.7,0,1,0c0.4,0,0.8,0,1.3,0c0.3,0,0.7,0,1,0
		c0.2,0,0.3,0,0.5,0c0.2,0,0.4,0,0.7,0c0.1,0,0.1,0,0.2,0c0.5,0,0.8,0.1,1.2,0.4c0.3,0.4,0.3,0.8,0.3,1.2c-0.2,0.4-0.4,0.6-0.8,0.8
		c-0.2,0-0.5,0-0.7,0c-0.1,0-0.1,0-0.2,0c-0.2,0-0.5,0-0.7,0c-0.2,0-0.3,0-0.5,0c-0.3,0-0.7,0-1,0c-0.4,0-0.9,0-1.3,0
		c-0.3,0-0.7,0-1,0c-0.2,0-0.3,0-0.5,0c-0.2,0-0.5,0-0.7,0c-0.1,0-0.1,0-0.2,0c-0.4,0-0.7-0.1-1-0.4c-0.2-0.3-0.3-0.5-0.3-0.9
		c0-0.1,0-0.2,0-0.2c0-0.3,0.2-0.5,0.4-0.8C53.5,60.4,53.9,60.4,54.3,60.4z"/>
	<path d="M35.3,60.4c0.1,0,0.1,0,0.2,0c0.2,0,0.5,0,0.7,0c0.2,0,0.3,0,0.5,0c0.3,0,0.7,0,1,0c0.4,0,0.8,0,1.3,0c0.3,0,0.7,0,1,0
		c0.2,0,0.3,0,0.5,0c0.2,0,0.4,0,0.7,0c0.1,0,0.1,0,0.2,0c0.4,0,0.8,0,1.2,0.3c0.3,0.4,0.3,0.6,0.3,1.1c0,0.3-0.1,0.5-0.3,0.7
		c-0.4,0.3-0.7,0.3-1.1,0.3c-0.1,0-0.1,0-0.2,0c-0.2,0-0.5,0-0.7,0c-0.2,0-0.3,0-0.5,0c-0.4,0-0.7,0-1.1,0c-0.4,0-0.9,0-1.3,0
		c-0.3,0-0.7,0-1,0c-0.2,0-0.3,0-0.5,0c-0.2,0-0.5,0-0.7,0c-0.1,0-0.1,0-0.2,0c-0.5,0-0.7-0.1-1.1-0.4c-0.3-0.3-0.3-0.6-0.3-1
		c0.1-0.3,0.2-0.5,0.4-0.8C34.5,60.5,34.8,60.4,35.3,60.4z"/>
	<path d="M71.3,68.7c0.1,0,0.1,0,0.2,0c0.2,0,0.4,0,0.6,0c0.1,0,0.3,0,0.4,0c0.3,0,0.6,0,0.9,0c0.4,0,0.7,0,1.1,0c0.3,0,0.6,0,0.8,0
		c0.1,0,0.3,0,0.4,0c0.2,0,0.4,0,0.6,0c0.1,0,0.1,0,0.2,0c0.3,0,0.6,0.1,0.9,0.2c0,0.1,0,0.1,0,0.2c0.1,0,0.2,0.1,0.2,0.1
		c0,0.1,0,0.1,0,0.2c0.1,0,0.1,0,0.2,0c0.1,0.5,0.2,0.9,0,1.3c-0.3,0.3-0.6,0.5-1,0.6c-0.1,0-0.2,0-0.3,0c-0.1,0-0.1,0-0.2,0
		c-0.2,0-0.4,0-0.6,0c-0.1,0-0.1,0-0.2,0c-0.4,0-0.8,0-1.1,0c-0.4,0-0.8,0-1.2,0c-0.3,0-0.6,0-0.9,0c-0.1,0-0.3,0-0.4,0
		c-0.2,0-0.4,0-0.6,0c-0.1,0-0.1,0-0.2,0c-0.4,0-0.6-0.1-1-0.4c0-0.1,0-0.1,0-0.2c-0.1,0-0.1,0-0.2,0c-0.3-0.6-0.3-0.6-0.2-1
		c0.2-0.4,0.4-0.7,0.8-0.9C70.7,68.7,71,68.7,71.3,68.7z"/>
	<path d="M85,68.7c0.1,0,0.1,0,0.2,0c0.2,0,0.4,0,0.6,0c0.1,0,0.3,0,0.4,0c0.3,0,0.6,0,0.9,0c0.4,0,0.7,0,1.1,0c0.3,0,0.6,0,0.8,0
		c0.1,0,0.3,0,0.4,0c0.2,0,0.4,0,0.6,0c0.1,0,0.1,0,0.2,0c0.5,0,0.9,0.1,1.2,0.5c0.2,0.3,0.4,0.6,0.3,1.1c-0.1,0.4-0.3,0.6-0.7,0.9
		c-0.3,0.1-0.6,0.1-0.9,0.1c-0.1,0-0.1,0-0.2,0c-0.2,0-0.4,0-0.6,0c-0.1,0-0.1,0-0.2,0c-0.4,0-0.7,0-1.1,0c-0.3,0-0.6,0-0.9,0
		c-0.4,0-0.7,0-1.1,0c-0.1,0-0.3,0-0.4,0c-1.3,0-1.3,0-1.8-0.4c-0.3-0.4-0.3-0.7-0.3-1.1c0-0.3,0.1-0.5,0.4-0.7
		C84.2,68.7,84.6,68.7,85,68.7z"/>
</g>
</svg>
