<svg version="1.1" id="Icon" xmlns="http://www.w3.org/2000/svg" x="0" y="0" viewBox="0 0 60 60" style="enable-background:new 0 0 60 60" xml:space="preserve"><style>.st1{fill:#31a8ff}</style><path id="BG" d="M10.6.7h38.7C55.2.7 60 5.5 60 11.4v37.2c0 5.9-4.7 10.6-10.6 10.6H10.6C4.8 59.3 0 54.5 0 48.6V11.4C0 5.5 4.7.8 10.6.7z" style="fill:#001e36"/><path id="Path_6604" class="st1" d="M13.5 41.8V16c0-.2.1-.3.2-.3h1.4c.6 0 1.2 0 1.9-.1.7 0 1.4 0 2.2-.1h2.3c1.7-.1 3.5.2 5.2.8 1.3.4 2.4 1.1 3.4 2.1.8.8 1.4 1.8 1.8 2.9.4 1 .6 2.1.6 3.3.1 1.9-.4 3.8-1.5 5.3-1 1.4-2.4 2.5-4 3-1.8.6-3.7.9-5.6.9H19v8c0 .2-.1.3-.3.3h-4.9c-.2 0-.3-.1-.3-.3zM19 20.6V29c.3 0 .7.1 1 .1h1.3c1 0 1.9-.2 2.9-.5.8-.2 1.5-.7 2.1-1.3.6-.7.8-1.7.8-2.6 0-.8-.2-1.6-.6-2.2-.4-.6-1-1.1-1.8-1.4-.9-.4-1.9-.5-3-.5H19z"/><path id="Path_6605" class="st1" d="M48 27.5c-.8-.4-1.6-.7-2.4-.9-.9-.2-1.9-.3-2.8-.3-.5 0-1 0-1.5.2-.3.1-.6.2-.8.5-.1.2-.2.4-.2.7 0 .2.1.5.2.6.2.3.5.5.9.7.6.3 1.2.6 1.8.8 1.4.5 2.6 1.1 3.8 1.8.8.5 1.5 1.2 2 2.1.4.8.6 1.7.6 2.6 0 1.2-.3 2.3-1 3.3s-1.7 1.8-2.8 2.2c-1.4.6-3 .8-4.5.8-1.1 0-2.3-.1-3.4-.3-.9-.2-1.7-.4-2.6-.8-.2-.1-.3-.3-.3-.5v-4.3c0-.1 0-.2.1-.2h.2c1 .6 2 1 3.1 1.2 1 .3 2 .4 3 .4.7 0 1.4-.1 2.1-.3.4-.2.7-.6.7-1s-.3-.8-.6-1c-.8-.5-1.6-.9-2.5-1.2-1.3-.4-2.5-1-3.6-1.8-.8-.6-1.4-1.3-1.9-2.1-.4-.8-.6-1.7-.6-2.6 0-1.1.3-2.1.9-3 .6-1 1.5-1.8 2.6-2.3 1.4-.6 2.9-.9 4.4-.9 1 0 2.1.1 3.1.2.7.1 1.5.3 2.2.6.1 0 .2.1.2.2s0 .2.1.3v4.1c0 .1 0 .2-.1.2H48z"/></svg>