<svg version="1.1" id="Ai_Logo" xmlns="http://www.w3.org/2000/svg" x="0" y="0" viewBox="0 0 60 60" style="enable-background:new 0 0 60 60" xml:space="preserve"><style>.st1{fill:#ff9a00}</style><path id="BG" d="M10.6.8h38.7C55.2.7 60 5.5 60 11.4v37.3c0 5.9-4.7 10.6-10.6 10.6H10.6C4.8 59.3 0 54.5 0 48.6V11.4C0 5.5 4.7.8 10.6.8z" style="fill:#300"/><path id="Path_6588" class="st1" d="M29.1 35.8h-9.3l-1.9 5.9c0 .2-.3.4-.5.4h-4.7c-.3 0-.4-.2-.3-.5l8.1-23.2c.1-.3.2-.5.3-.8.1-.5.2-1.1.2-1.6 0-.1.1-.3.2-.3h6.5c.2 0 .3.1.3.2l9 25.8c.1.3 0 .4-.3.4h-5.2c-.2 0-.4-.1-.4-.3l-2-6zm-7.9-5h6.3c-.2-.5-.4-1.2-.6-1.8-.2-.7-.5-1.4-.7-2.1-.3-.8-.5-1.5-.7-2.3s-.5-1.5-.7-2.2c-.2-.7-.4-1.4-.6-1.9h-.1c-.2 1.1-.5 2.2-.8 3.2-.4 1.2-.7 2.5-1.2 3.7-.1 1.2-.5 2.3-.9 3.4z"/><path id="Path_6589" class="st1" d="M42.4 20c-.8 0-1.6-.3-2.2-.9-.6-.6-.9-1.5-.8-2.3 0-.8.3-1.6.9-2.2.6-.6 1.4-.9 2.2-.9.8 0 1.7.3 2.3.9 1.1 1.3 1.1 3.2-.1 4.5-.6.6-1.4 1-2.3.9zm-2.7 21.7V22.4c0-.3.1-.4.3-.4h5c.2 0 .3.1.3.4v19.2c0 .3-.1.4-.3.4h-5c-.2.1-.3 0-.3-.3-.1.1-.1 0 0 0z"/></svg>