<svg xmlns="http://www.w3.org/2000/svg" viewBox="0 0 60 60" style="enable-background:new 0 0 60 60" xml:space="preserve"><path d="M20 60c5.5 0 10-4.5 10-10V40H20c-5.5 0-10 4.5-10 10s4.5 10 10 10z" style="fill:#0acf83"/><path d="M10 30c0-5.5 4.5-10 10-10h10v20H20c-5.5 0-10-4.5-10-10z" style="fill:#a259ff"/><path d="M10 10c0-5.5 4.5-10 10-10h10v20H20c-5.5 0-10-4.5-10-10z" style="fill:#f24e1e"/><path d="M30 0h10c5.5 0 10 4.5 10 10s-4.5 10-10 10H30V0z" style="fill:#ff7262"/><path d="M50 30c0 5.5-4.5 10-10 10s-10-4.5-10-10 4.5-10 10-10 10 4.5 10 10z" style="fill:#1abcfe"/></svg>